<?xml version="1.0" encoding="UTF-8" standalone="no"?>
<!-- Generator: Adobe Illustrator 15.0.0, SVG Export Plug-In . SVG Version: 6.00 Build 0)  -->

<svg
   xmlns:dc="http://purl.org/dc/elements/1.1/"
   xmlns:cc="http://creativecommons.org/ns#"
   xmlns:rdf="http://www.w3.org/1999/02/22-rdf-syntax-ns#"
   xmlns:svg="http://www.w3.org/2000/svg"
   xmlns="http://www.w3.org/2000/svg"
   xmlns:sodipodi="http://sodipodi.sourceforge.net/DTD/sodipodi-0.dtd"
   xmlns:inkscape="http://www.inkscape.org/namespaces/inkscape"
   version="1.1"
   id="Ebene_1"
   x="0px"
   y="0px"
   width="512px"
   height="512px"
   viewBox="0 0 512 512"
   enable-background="new 0 0 512 512"
   xml:space="preserve"
   inkscape:version="0.91 r13725"
   sodipodi:docname="withbackgroundcolor.svg"><metadata
     id="metadata21"><rdf:RDF><cc:Work
         rdf:about=""><dc:format>image/svg+xml</dc:format><dc:type
           rdf:resource="http://purl.org/dc/dcmitype/StillImage" /></cc:Work></rdf:RDF></metadata><defs
     id="defs19" /><sodipodi:namedview
     pagecolor="#ffffff"
     bordercolor="#666666"
     borderopacity="1"
     objecttolerance="10"
     gridtolerance="10"
     guidetolerance="10"
     inkscape:pageopacity="0"
     inkscape:pageshadow="2"
     inkscape:window-width="1920"
     inkscape:window-height="1032"
     id="namedview17"
     showgrid="false"
     inkscape:zoom="0.4609375"
     inkscape:cx="260.33898"
     inkscape:cy="256"
     inkscape:window-x="1920"
     inkscape:window-y="26"
     inkscape:window-maximized="1"
     inkscape:current-layer="Ebene_1" /><rect
     fill="#FFE884"
     width="512"
     height="512"
     id="rect3" /><g
     id="g5"
     transform="matrix(0.80355223,0,0,0.81915328,51.375474,44.712272)"><g
       id="g7"><g
         id="g9"><path
           d="m 100.918,107.871 c -14.23,0 -25.749,2.304 -34.565,6.913 -8.821,4.612 -18.535,13.826 -29.155,27.652 L 18.563,126.205 C 35.591,102.36 50.62,86.581 63.648,78.866 c 13.024,-7.71 30.758,-11.572 53.2,-11.572 l 203.631,0 49.747,40.577 -72.737,0 0,247.406 c 0,26.254 7.513,39.373 22.54,39.373 8.613,0 18.938,-5.002 30.959,-15.027 l 11.723,18.037 c -22.441,19.234 -44.286,28.854 -65.522,28.854 -17.237,0 -30.107,-5.813 -38.622,-17.436 -8.521,-11.615 -12.775,-31.154 -12.775,-58.607 l 0,-242.6 -92.273,0 0,246.764 -60.415,0 0,-14.729 c 12.423,-47.084 18.635,-110.608 18.635,-190.557 l 0,-41.478 -10.821,0 z"
           id="path11"
           inkscape:connector-curvature="0"
           style="fill:#3b1539" /></g><g
         id="g13"><path
           d="m 473.137,406.883 c -5.102,-3.518 -10.11,-8.609 -15.029,-15.295 -4.922,-6.68 -10.811,-16.344 -17.667,-29.002 l -23.728,-43.238 c -9.318,-17.227 -17.797,-29.926 -25.442,-38.098 -7.647,-8.174 -16.835,-14.459 -27.553,-18.854 l 0,-2.107 c 26.538,-9.492 46.443,-22.676 59.721,-39.548 13.268,-16.875 19.905,-37.347 19.905,-61.43 0,-31.463 -10.195,-54.665 -30.586,-69.605 C 392.367,74.768 361.61,67.295 320.48,67.295 l 1.089,40.577 c 46.731,1.226 54.712,9.073 60.211,16.637 7.325,10.077 8.568,24.959 8.568,41.658 0,15.995 -2.416,29.488 -7.251,40.468 -4.837,10.986 -11.297,19.555 -19.379,25.706 -8.029,6.114 -35.07,12.61 -44.743,14.851 l -0.208,25.094 c 4.305,0.965 8.345,2.729 12.125,5.273 3.782,2.547 7.912,6.986 12.394,13.314 4.481,6.326 10.238,16.174 17.271,29.529 l 23.201,44.029 c 5.8,11.074 11.689,21.977 17.664,32.695 5.974,10.721 12.3,20.74 18.984,30.057 l 73.032,0 0,-12.92 C 485,412.857 478.234,410.4 473.137,406.883 Z"
           id="path15"
           inkscape:connector-curvature="0"
           style="fill:#3b1539" /></g></g></g></svg>